<svg xmlns="http://www.w3.org/2000/svg" width="196.001" height="36" viewBox="0 0 196.001 36">
  <g id="Group_7598" data-name="Group 7598" transform="translate(563.825 -30)">
    <g id="Logo-white" transform="translate(-563.825 30)">
      <g id="Group_38" data-name="Group 38">
        <path id="Path_58" data-name="Path 58" d="M-274.708,73.468l-4.645-3.3V85.432l4.645,3.354Z" transform="translate(298.709 -60.531)" fill="#b0bec5"/>
        <path id="Path_59" data-name="Path 59" d="M-336,58.254h0L-354.233,45.09V30L-360,32.28V47.4l13.666,9.84-13.646,5.476h0L-355.332,66h0Z" transform="translate(360 -30)" fill="#ced5d8"/>
        <path id="Path_60" data-name="Path 60" d="M-336,42.943h0l-18.232-12.935L-360,32.285l13.614,9.663L-360,47.4h0l.02,15.316L-355.333,66V50.783L-336,42.944Z" transform="translate(360.001 -30.006)" fill="#fff"/>
      </g>
    </g>
    <g id="Logo-text-white" transform="translate(-527.824 37.197)">
      <g id="Group_45" data-name="Group 45">
        <path id="Path_67" data-name="Path 67" d="M-861.362,150.377a9.988,9.988,0,0,1,7.523,3.13,10.731,10.731,0,0,1,3,7.717,10.743,10.743,0,0,1-3,7.7,9.96,9.96,0,0,1-7.523,3.146H-870V150.377Zm0,18.285a6.619,6.619,0,0,0,5.073-2.107,7.515,7.515,0,0,0,1.963-5.331,7.5,7.5,0,0,0-1.963-5.346,6.644,6.644,0,0,0-5.073-2.092h-5.026v14.878Z" transform="translate(870 -150.222)" fill="#fff"/>
        <path id="Path_68" data-name="Path 68" d="M-805.109,172a11.346,11.346,0,0,1-8.23-3.166A10.473,10.473,0,0,1-816.6,161a10.473,10.473,0,0,1,3.266-7.833A11.338,11.338,0,0,1-805.109,150a11.421,11.421,0,0,1,5.512,1.364,10.114,10.114,0,0,1,3.942,3.7l-3.141,1.757a6.376,6.376,0,0,0-2.56-2.5,7.662,7.662,0,0,0-3.754-.924,7.768,7.768,0,0,0-5.7,2.152A7.334,7.334,0,0,0-812.994,161a7.334,7.334,0,0,0,2.183,5.455,7.77,7.77,0,0,0,5.7,2.151,7.745,7.745,0,0,0,3.769-.924,6.134,6.134,0,0,0,2.544-2.5l3.141,1.727a10,10,0,0,1-3.911,3.712A11.39,11.39,0,0,1-805.109,172Z" transform="translate(837.964 -149.997)" fill="#fff"/>
        <path id="Path_69" data-name="Path 69" d="M-745.9,172.076l-1.539-4.37h-9.36l-1.539,4.37h-3.926l7.978-21.694h4.334l7.946,21.694Zm-9.706-7.717h6.973l-3.486-9.793Z" transform="translate(805.359 -150.227)" fill="#fff"/>
        <path id="Path_70" data-name="Path 70" d="M-701.566,172a9.913,9.913,0,0,1-5.387-1.394,7.372,7.372,0,0,1-3.094-3.818l3.11-1.758q1.32,3.576,5.465,3.576a5.045,5.045,0,0,0,3.062-.773,2.413,2.413,0,0,0,1.021-2.015,2.2,2.2,0,0,0-1.1-1.985,17.431,17.431,0,0,0-3.894-1.5q-1.572-.455-2.544-.848a11.928,11.928,0,0,1-2.057-1.106A4.565,4.565,0,0,1-708.6,158.6a5.456,5.456,0,0,1-.534-2.485,5.412,5.412,0,0,1,2.073-4.469A7.766,7.766,0,0,1-702.068,150a8.5,8.5,0,0,1,4.617,1.242,8.215,8.215,0,0,1,3.047,3.425l-3.047,1.7a4.745,4.745,0,0,0-4.617-2.97,4.071,4.071,0,0,0-2.513.712,2.288,2.288,0,0,0-.943,1.924,2.166,2.166,0,0,0,.96,1.864,13.072,13.072,0,0,0,3.471,1.44q1.256.394,1.838.59t1.633.622a6.583,6.583,0,0,1,1.586.848,11.924,11.924,0,0,1,1.147,1.061,3.6,3.6,0,0,1,.861,1.454,6.3,6.3,0,0,1,.251,1.849,5.48,5.48,0,0,1-2.152,4.56A8.893,8.893,0,0,1-701.566,172Z" transform="translate(774.028 -149.993)" fill="#fff"/>
        <path id="Path_71" data-name="Path 71" d="M-651.859,150.379v3.407h-6.188v18.285h-3.612V153.786h-6.219v-3.409Z" transform="translate(748.727 -150.224)" fill="#fff"/>
        <path id="Path_72" data-name="Path 72" d="M-613.822,172.076l-1.539-4.37h-9.36l-1.539,4.37h-3.926l7.978-21.694h4.334l7.947,21.694Zm-9.706-7.717h6.973l-3.486-9.793Z" transform="translate(726.112 -150.227)" fill="#fff"/>
        <path id="Path_73" data-name="Path 73" d="M-570.038,168.669h8.952v3.409H-573.65v-21.7h3.612Z" transform="translate(692.19 -150.227)" fill="#fff"/>
        <path id="Path_74" data-name="Path 74" d="M-535.567,150.382h3.612v21.694h-3.612Z" transform="translate(669.34 -150.227)" fill="#fff"/>
        <path id="Path_75" data-name="Path 75" d="M-504.284,172.076l-1.539-4.37h-9.36l-1.539,4.37h-3.926l7.978-21.694h4.334l7.947,21.694Zm-9.705-7.717h6.973l-3.486-9.793Z" transform="translate(660.389 -150.227)" fill="#fff"/>
      </g>
    </g>
  </g>
</svg>
